<svg viewBox="0 0 14.0658 13.7478" fill="none" xmlns="http://www.w3.org/2000/svg">
  <path d="M3.32306 12.0443C3.37943 11.2398 4.88577 10.69 6.68761 10.8164C8.48946 10.9428 9.90442 11.6974 9.84807 12.5019C9.7917 13.3064 8.28536 13.8561 6.48351 13.7298C4.68167 13.6034 3.26671 12.8488 3.32306 12.0443Z" fill="#171717" fill-opacity=".95"/>
  <path d="M9.98062 7.43223C10.4043 5.56328 11.63 4.24839 12.7181 4.49532C13.8063 4.74226 14.3449 6.45756 13.9212 8.32651C13.4974 10.1954 12.2718 11.5103 11.1837 11.2634C10.0955 11.0165 9.5569 9.30118 9.98062 7.43223Z" fill="#171717" fill-opacity=".95"/>
  <path d="M0.753489 3.69218C2.03859 1.06308 4.52097 -0.363429 6.29796 0.505986C8.07494 1.37541 8.47372 4.21151 7.18864 6.8406C5.90354 9.4697 3.42116 10.8962 1.64416 10.0268C-0.132813 9.15736 -0.531592 6.32126 0.753489 3.69218Z" fill="#171717" fill-opacity=".95"/>
  <path d="M8.24037 0.174442C8.5148 -0.23554 9.73672 0.101818 10.9696 0.927869C12.2025 1.7539 12.9795 2.75583 12.7052 3.16585C12.4307 3.57584 11.2087 3.2386 9.97581 2.41254C8.74292 1.58648 7.96593 0.584427 8.24037 0.174442Z" fill="#171717" fill-opacity=".95"/>
</svg>
